<svg width="24" height="24" viewBox="0 0 24 24" fill="none" xmlns="http://www.w3.org/2000/svg">
<g clip-path="url(#clip0_11_2)">
<path d="M12 23.999C18.6275 23.999 24 18.6265 24 11.999C24 5.373 18.6275 0 12 0C5.3725 0 0 5.3725 0 11.9995C0 18.6265 5.3725 23.999 12 23.999Z" fill="#FABC3D"/>
<path d="M12.0001 18.9809C15.8561 18.9809 18.9816 15.8554 18.9816 11.9994C18.9816 8.14344 15.8561 5.01794 12.0001 5.01794C8.14407 5.01794 5.01807 8.14394 5.01807 11.9999C5.01807 15.8559 8.14407 18.9809 12.0001 18.9809Z" fill="white"/>
<path d="M12.0001 5.01794C8.14407 5.01794 5.01807 8.14394 5.01807 11.9994H18.9816C18.9816 8.14394 15.8561 5.01794 12.0001 5.01794Z" fill="#DF2C2C"/>
<path d="M12.0001 5.01794C8.14407 5.01794 5.01807 8.14394 5.01807 11.9994H12.0001V5.01794Z" fill="#FA5655"/>
<path d="M12.0001 9.38147C11.459 9.38148 10.9313 9.54932 10.4896 9.86185C10.0479 10.1744 9.71406 10.6162 9.53406 11.1265H5.07405C5.03735 11.4162 5.01882 11.7079 5.01855 12C5.01855 12.296 5.03905 12.587 5.07505 12.873H9.53455C9.89455 13.889 10.8611 14.618 12.0006 14.618C13.1401 14.618 14.1066 13.889 14.4666 12.873H18.9261C18.9616 12.587 18.9821 12.296 18.9821 12C18.9814 11.7043 18.9627 11.4135 18.9261 11.1275H14.4661C14.2861 10.6171 13.9523 10.1752 13.5106 9.86256C13.069 9.54993 12.5412 9.38151 12.0001 9.38147Z" fill="#3E3E3F"/>
<path d="M11.9999 13.3084C12.3472 13.3084 12.6802 13.1705 12.9257 12.925C13.1712 12.6794 13.3092 12.3464 13.3092 11.9992C13.3092 11.652 13.1712 11.3189 12.9257 11.0734C12.6802 10.8279 12.3472 10.6899 11.9999 10.6899C11.6527 10.6899 11.3198 10.8279 11.0743 11.0733C10.8288 11.3188 10.6909 11.6518 10.6909 11.9989C10.6909 12.3461 10.8288 12.6791 11.0743 12.9245C11.3198 13.17 11.6527 13.3079 11.9999 13.3079" fill="white"/>
</g>
<defs>
<clipPath id="clip0_11_2">
<rect width="24" height="24" fill="white"/>
</clipPath>
</defs>
</svg>
